<svg xmlns="http://www.w3.org/2000/svg" viewBox="0 0 1200 650">
<defs><linearGradient id="g" x1="0" y1="0" x2="1" y2="1"><stop stop-color="#12051f"/><stop offset=".45" stop-color="#3f1468"/><stop offset="1" stop-color="#ff7a1a"/></linearGradient><radialGradient id="m" cx="70%" cy="25%"><stop stop-color="#fff2aa"/><stop offset=".35" stop-color="#ff9b2f"/><stop offset="1" stop-color="#ff3b1f"/></radialGradient></defs><rect width="1200" height="650" fill="url(#g)"/><circle cx="860" cy="150" r="115" fill="url(#m)" opacity=".95"/><path d="M0 520 Q160 430 315 505 T640 500 T960 470 T1200 520 V650 H0Z" fill="#080b18"/><path d="M140 510 L250 330 L315 520" fill="#122a3d"/><path d="M395 520 L550 280 L690 535" fill="#0f2734"/><path d="M760 510 L890 335 L1045 525" fill="#163144"/><g opacity=".85" fill="#b8f7ff"><circle cx="170" cy="400" r="8"/><circle cx="212" cy="360" r="4"/><circle cx="1030" cy="390" r="7"/><circle cx="980" cy="420" r="5"/><circle cx="600" cy="255" r="4"/></g><g fill="#ffdf60"><path d="M335 485 h95 v20 h-95z"/><rect x="360" y="420" width="45" height="70" rx="18"/><circle cx="382" cy="405" r="30" fill="#fff3c4"/></g></svg>
